<svg width="127" height="24" viewBox="0 0 127 24" fill="none" xmlns="http://www.w3.org/2000/svg">
<path d="M120.134 23.3598C118.278 23.3598 116.657 23.0078 115.27 22.3038C113.905 21.5784 112.838 20.5971 112.07 19.3598C111.324 18.1224 110.95 16.7358 110.95 15.1998C110.95 13.4718 111.302 11.9678 112.006 10.6878C112.71 9.40776 113.67 8.41576 114.886 7.71176C116.102 7.00776 117.478 6.65576 119.014 6.65576C120.849 6.65576 122.332 7.03976 123.462 7.80776C124.614 8.57576 125.457 9.61043 125.99 10.9118C126.524 12.1918 126.79 13.6211 126.79 15.1998C126.79 15.4131 126.78 15.6691 126.758 15.9678C126.737 16.2451 126.705 16.4584 126.662 16.6078H115.622C115.793 17.2691 116.081 17.8238 116.486 18.2718C116.913 18.7198 117.436 19.0611 118.054 19.2958C118.694 19.5091 119.409 19.6158 120.198 19.6158H124.742V23.3598H120.134ZM115.59 13.6638H122.406C122.364 13.2584 122.289 12.8851 122.182 12.5438C122.076 12.1811 121.926 11.8611 121.734 11.5838C121.542 11.3064 121.318 11.0718 121.062 10.8798C120.806 10.6878 120.508 10.5384 120.166 10.4318C119.825 10.3251 119.452 10.2718 119.046 10.2718C118.513 10.2718 118.033 10.3678 117.606 10.5598C117.201 10.7518 116.86 11.0078 116.582 11.3278C116.305 11.6478 116.081 12.0104 115.91 12.4158C115.761 12.8211 115.654 13.2371 115.59 13.6638Z" fill="white"/>
<path d="M101.234 23.744C100.274 23.744 99.3992 23.488 98.6099 22.976C97.8419 22.464 97.3086 21.792 97.0099 20.96L92.3379 7.04004H97.1059L100.882 19.168C100.925 19.2534 100.978 19.3174 101.042 19.36C101.106 19.4027 101.181 19.424 101.266 19.424C101.351 19.424 101.426 19.4027 101.49 19.36C101.575 19.3174 101.629 19.2534 101.65 19.168L105.458 7.04004H110.13L105.458 20.928C105.159 21.76 104.615 22.4427 103.826 22.976C103.058 23.488 102.194 23.744 101.234 23.744Z" fill="white"/>
<path d="M81.4047 23.7438C79.9114 23.7438 78.61 23.3598 77.5007 22.5918C76.3914 21.8238 75.5274 20.7998 74.9087 19.5198C74.3114 18.2184 74.0127 16.7891 74.0127 15.2318C74.0127 13.6318 74.354 12.1811 75.0367 10.8798C75.7407 9.57843 76.7434 8.55443 78.0447 7.80776C79.346 7.03976 80.9034 6.65576 82.7167 6.65576C84.5514 6.65576 86.098 7.03976 87.3567 7.80776C88.6154 8.57576 89.5754 9.61043 90.2367 10.9118C90.898 12.2131 91.2287 13.6531 91.2287 15.2318V23.3598H86.8447V20.6398H86.7807C86.4607 21.2158 86.0554 21.7384 85.5647 22.2078C85.0954 22.6771 84.5194 23.0504 83.8367 23.3278C83.154 23.6051 82.3434 23.7438 81.4047 23.7438ZM82.6527 19.9998C83.506 19.9998 84.242 19.7864 84.8607 19.3598C85.4794 18.9331 85.9487 18.3571 86.2687 17.6318C86.61 16.8851 86.7807 16.0638 86.7807 15.1678C86.7807 14.2718 86.61 13.4718 86.2687 12.7678C85.9487 12.0424 85.4794 11.4664 84.8607 11.0398C84.242 10.6131 83.506 10.3998 82.6527 10.3998C81.778 10.3998 81.0207 10.6131 80.3807 11.0398C79.762 11.4664 79.282 12.0424 78.9407 12.7678C78.6207 13.4718 78.4607 14.2718 78.4607 15.1678C78.4607 16.0638 78.6207 16.8851 78.9407 17.6318C79.282 18.3571 79.762 18.9331 80.3807 19.3598C81.0207 19.7864 81.778 19.9998 82.6527 19.9998Z" fill="white"/>
<path d="M62.3707 23.744C60.984 23.744 59.7574 23.5307 58.6907 23.104C57.624 22.656 56.728 22.0373 56.0027 21.248C55.2774 20.4373 54.7227 19.4987 54.3387 18.432C53.9547 17.344 53.7627 16.16 53.7627 14.88C53.7627 13.2587 54.0827 11.84 54.7227 10.624C55.384 9.38667 56.3014 8.416 57.4747 7.712C58.648 7.008 60.0347 6.656 61.6347 6.656C62.3174 6.656 62.968 6.752 63.5867 6.944C64.2267 7.136 64.792 7.41333 65.2827 7.776C65.7947 8.13867 66.2214 8.56533 66.5627 9.056H66.5947V0H70.9787V14.88C70.9787 16.672 70.6267 18.24 69.9227 19.584C69.2187 20.9067 68.216 21.9307 66.9147 22.656C65.6347 23.3813 64.12 23.744 62.3707 23.744ZM62.3707 20C63.224 20 63.96 19.7867 64.5787 19.36C65.2187 18.9333 65.6987 18.3573 66.0187 17.632C66.36 16.9067 66.5307 16.096 66.5307 15.2C66.5307 14.304 66.36 13.4933 66.0187 12.768C65.6987 12.0427 65.2187 11.4667 64.5787 11.04C63.96 10.6133 63.224 10.4 62.3707 10.4C61.496 10.4 60.7494 10.6133 60.1307 11.04C59.512 11.4667 59.032 12.0427 58.6907 12.768C58.3707 13.4933 58.2107 14.304 58.2107 15.2C58.2107 16.096 58.3707 16.9067 58.6907 17.632C59.032 18.3573 59.512 18.9333 60.1307 19.36C60.7494 19.7867 61.496 20 62.3707 20Z" fill="white"/>
<path d="M42.7189 23.7438C41.0336 23.7438 39.5296 23.3704 38.2069 22.6238C36.8843 21.8558 35.8389 20.8318 35.0709 19.5518C34.3029 18.2504 33.9189 16.7998 33.9189 15.1998C33.9189 13.5998 34.3029 12.1598 35.0709 10.8798C35.8389 9.57843 36.8843 8.55443 38.2069 7.80776C39.5296 7.03976 41.0336 6.65576 42.7189 6.65576C44.4043 6.65576 45.9083 7.03976 47.2309 7.80776C48.5536 8.55443 49.5989 9.57843 50.3669 10.8798C51.1349 12.1598 51.5189 13.5998 51.5189 15.1998C51.5189 16.7998 51.1349 18.2504 50.3669 19.5518C49.5989 20.8318 48.5536 21.8558 47.2309 22.6238C45.9083 23.3704 44.4043 23.7438 42.7189 23.7438ZM42.7189 19.9998C43.6149 19.9998 44.3829 19.7864 45.0229 19.3598C45.6843 18.9331 46.1856 18.3571 46.5269 17.6318C46.8896 16.9064 47.0709 16.0958 47.0709 15.1998C47.0709 14.3038 46.8896 13.4931 46.5269 12.7678C46.1856 12.0424 45.6843 11.4664 45.0229 11.0398C44.3829 10.6131 43.6149 10.3998 42.7189 10.3998C41.8229 10.3998 41.0443 10.6131 40.3829 11.0398C39.7429 11.4664 39.2416 12.0424 38.8789 12.7678C38.5376 13.4931 38.3669 14.3038 38.3669 15.1998C38.3669 16.0958 38.5376 16.9064 38.8789 17.6318C39.2416 18.3571 39.7429 18.9331 40.3829 19.3598C41.0443 19.7864 41.8229 19.9998 42.7189 19.9998Z" fill="white"/>
<path d="M15.424 23.7117C14.1653 23.7117 13.024 23.4237 12 22.8477C10.9973 22.2717 10.208 21.4823 9.632 20.4797C9.056 19.477 8.768 18.325 8.768 17.0237V6.71968C8.768 6.33568 8.672 5.98368 8.48 5.66368C8.288 5.34368 8.032 5.08768 7.712 4.89568C7.392 4.70368 7.04 4.60768 6.656 4.60768C6.272 4.60768 5.92 4.70368 5.6 4.89568C5.30133 5.08768 5.056 5.34368 4.864 5.66368C4.672 5.98368 4.576 6.33568 4.576 6.71968V23.3597H0V7.26368C0 6.02635 0.277333 4.90635 0.832 3.90368C1.38667 2.90102 2.16533 2.10102 3.168 1.50368C4.17067 0.885017 5.33333 0.575684 6.656 0.575684C8 0.575684 9.17333 0.885017 10.176 1.50368C11.1787 2.10102 11.9573 2.90102 12.512 3.90368C13.0667 4.90635 13.344 6.02635 13.344 7.26368V17.5677C13.344 17.9517 13.44 18.3037 13.632 18.6237C13.824 18.9437 14.0693 19.1997 14.368 19.3917C14.688 19.5837 15.04 19.6797 15.424 19.6797C15.808 19.6797 16.16 19.5837 16.48 19.3917C16.8 19.1997 17.056 18.9437 17.248 18.6237C17.44 18.3037 17.536 17.9517 17.536 17.5677V7.26368C17.536 6.02635 17.8133 4.90635 18.368 3.90368C18.9227 2.90102 19.7013 2.10102 20.704 1.50368C21.728 0.885017 22.9013 0.575684 24.224 0.575684C25.568 0.575684 26.7307 0.885017 27.712 1.50368C28.7147 2.10102 29.4933 2.90102 30.048 3.90368C30.6027 4.90635 30.88 6.02635 30.88 7.26368V23.3597H26.304V6.71968C26.304 6.33568 26.208 5.98368 26.016 5.66368C25.8453 5.34368 25.6 5.08768 25.28 4.89568C24.96 4.70368 24.608 4.60768 24.224 4.60768C23.84 4.60768 23.488 4.70368 23.168 4.89568C22.848 5.08768 22.592 5.34368 22.4 5.66368C22.208 5.98368 22.112 6.33568 22.112 6.71968V17.0237C22.112 18.325 21.8133 19.477 21.216 20.4797C20.64 21.4823 19.8507 22.2717 18.848 22.8477C17.8453 23.4237 16.704 23.7117 15.424 23.7117Z" fill="white"/>
</svg>
