<svg width="144" height="25" viewBox="0 0 144 25" fill="none" xmlns="http://www.w3.org/2000/svg">
<path d="M123.153 24.2177C121.297 24.2177 119.676 23.8657 118.289 23.1617C116.924 22.4363 115.857 21.455 115.089 20.2177C114.342 18.9803 113.969 17.5937 113.969 16.0577C113.969 14.3297 114.321 12.8257 115.025 11.5457C115.729 10.2657 116.689 9.27367 117.905 8.56967C119.121 7.86567 120.497 7.51367 122.033 7.51367C123.868 7.51367 125.35 7.89767 126.481 8.66567C127.633 9.43367 128.476 10.4683 129.009 11.7697C129.542 13.0497 129.809 14.479 129.809 16.0577C129.809 16.271 129.798 16.527 129.777 16.8257C129.756 17.103 129.724 17.3163 129.681 17.4657H118.641C118.812 18.127 119.1 18.6817 119.505 19.1297C119.932 19.5777 120.454 19.919 121.073 20.1537C121.713 20.367 122.428 20.4737 123.217 20.4737H127.761V24.2177H123.153ZM118.609 14.5217H125.425C125.382 14.1163 125.308 13.743 125.201 13.4017C125.094 13.039 124.945 12.719 124.753 12.4417C124.561 12.1643 124.337 11.9297 124.081 11.7377C123.825 11.5457 123.526 11.3963 123.185 11.2897C122.844 11.183 122.47 11.1297 122.065 11.1297C121.532 11.1297 121.052 11.2257 120.625 11.4177C120.22 11.6097 119.878 11.8657 119.601 12.1857C119.324 12.5057 119.1 12.8683 118.929 13.2737C118.78 13.679 118.673 14.095 118.609 14.5217Z" fill="#181818"/>
<path d="M104.252 24.6024C103.292 24.6024 102.418 24.3464 101.628 23.8344C100.86 23.3224 100.327 22.6504 100.028 21.8184L95.3564 7.89844H100.124L103.9 20.0264C103.943 20.1118 103.996 20.1758 104.06 20.2184C104.124 20.2611 104.199 20.2824 104.284 20.2824C104.37 20.2824 104.444 20.2611 104.508 20.2184C104.594 20.1758 104.647 20.1118 104.668 20.0264L108.476 7.89844H113.148L108.476 21.7864C108.178 22.6184 107.634 23.3011 106.844 23.8344C106.076 24.3464 105.212 24.6024 104.252 24.6024Z" fill="#181818"/>
<path d="M84.4235 24.6017C82.9302 24.6017 81.6288 24.2177 80.5195 23.4497C79.4102 22.6817 78.5462 21.6577 77.9275 20.3777C77.3302 19.0763 77.0315 17.647 77.0315 16.0897C77.0315 14.4897 77.3728 13.039 78.0555 11.7377C78.7595 10.4363 79.7622 9.41234 81.0635 8.66567C82.3648 7.89767 83.9222 7.51367 85.7355 7.51367C87.5702 7.51367 89.1168 7.89767 90.3755 8.66567C91.6342 9.43367 92.5942 10.4683 93.2555 11.7697C93.9168 13.071 94.2475 14.511 94.2475 16.0897V24.2177H89.8635V21.4977H89.7995C89.4795 22.0737 89.0742 22.5963 88.5835 23.0657C88.1142 23.535 87.5382 23.9083 86.8555 24.1857C86.1728 24.463 85.3622 24.6017 84.4235 24.6017ZM85.6715 20.8577C86.5248 20.8577 87.2608 20.6443 87.8795 20.2177C88.4982 19.791 88.9675 19.215 89.2875 18.4897C89.6288 17.743 89.7995 16.9217 89.7995 16.0257C89.7995 15.1297 89.6288 14.3297 89.2875 13.6257C88.9675 12.9003 88.4982 12.3243 87.8795 11.8977C87.2608 11.471 86.5248 11.2577 85.6715 11.2577C84.7968 11.2577 84.0395 11.471 83.3995 11.8977C82.7808 12.3243 82.3008 12.9003 81.9595 13.6257C81.6395 14.3297 81.4795 15.1297 81.4795 16.0257C81.4795 16.9217 81.6395 17.743 81.9595 18.4897C82.3008 19.215 82.7808 19.791 83.3995 20.2177C84.0395 20.6443 84.7968 20.8577 85.6715 20.8577Z" fill="#181818"/>
<path d="M65.3895 24.6024C64.0028 24.6024 62.7762 24.3891 61.7095 23.9624C60.6428 23.5144 59.7468 22.8957 59.0215 22.1064C58.2962 21.2957 57.7415 20.3571 57.3575 19.2904C56.9735 18.2024 56.7815 17.0184 56.7815 15.7384C56.7815 14.1171 57.1015 12.6984 57.7415 11.4824C58.4028 10.2451 59.3202 9.2744 60.4935 8.5704C61.6668 7.8664 63.0535 7.5144 64.6535 7.5144C65.3362 7.5144 65.9868 7.6104 66.6055 7.8024C67.2455 7.9944 67.8108 8.27173 68.3015 8.6344C68.8135 8.99707 69.2402 9.42373 69.5815 9.9144H69.6135V0.858398H73.9975V15.7384C73.9975 17.5304 73.6455 19.0984 72.9415 20.4424C72.2375 21.7651 71.2348 22.7891 69.9335 23.5144C68.6535 24.2397 67.1388 24.6024 65.3895 24.6024ZM65.3895 20.8584C66.2428 20.8584 66.9788 20.6451 67.5975 20.2184C68.2375 19.7917 68.7175 19.2157 69.0375 18.4904C69.3788 17.7651 69.5495 16.9544 69.5495 16.0584C69.5495 15.1624 69.3788 14.3517 69.0375 13.6264C68.7175 12.9011 68.2375 12.3251 67.5975 11.8984C66.9788 11.4717 66.2428 11.2584 65.3895 11.2584C64.5148 11.2584 63.7682 11.4717 63.1495 11.8984C62.5308 12.3251 62.0508 12.9011 61.7095 13.6264C61.3895 14.3517 61.2295 15.1624 61.2295 16.0584C61.2295 16.9544 61.3895 17.7651 61.7095 18.4904C62.0508 19.2157 62.5308 19.7917 63.1495 20.2184C63.7682 20.6451 64.5148 20.8584 65.3895 20.8584Z" fill="#181818"/>
<path d="M45.7377 24.6017C44.0524 24.6017 42.5484 24.2283 41.2257 23.4817C39.9031 22.7137 38.8577 21.6897 38.0897 20.4097C37.3217 19.1083 36.9377 17.6577 36.9377 16.0577C36.9377 14.4577 37.3217 13.0177 38.0897 11.7377C38.8577 10.4363 39.9031 9.41234 41.2257 8.66567C42.5484 7.89767 44.0524 7.51367 45.7377 7.51367C47.4231 7.51367 48.9271 7.89767 50.2497 8.66567C51.5724 9.41234 52.6177 10.4363 53.3857 11.7377C54.1537 13.0177 54.5377 14.4577 54.5377 16.0577C54.5377 17.6577 54.1537 19.1083 53.3857 20.4097C52.6177 21.6897 51.5724 22.7137 50.2497 23.4817C48.9271 24.2283 47.4231 24.6017 45.7377 24.6017ZM45.7377 20.8577C46.6337 20.8577 47.4017 20.6443 48.0417 20.2177C48.7031 19.791 49.2044 19.215 49.5457 18.4897C49.9084 17.7643 50.0897 16.9537 50.0897 16.0577C50.0897 15.1617 49.9084 14.351 49.5457 13.6257C49.2044 12.9003 48.7031 12.3243 48.0417 11.8977C47.4017 11.471 46.6337 11.2577 45.7377 11.2577C44.8417 11.2577 44.0631 11.471 43.4017 11.8977C42.7617 12.3243 42.2604 12.9003 41.8977 13.6257C41.5564 14.351 41.3857 15.1617 41.3857 16.0577C41.3857 16.9537 41.5564 17.7643 41.8977 18.4897C42.2604 19.215 42.7617 19.791 43.4017 20.2177C44.0631 20.6443 44.8417 20.8577 45.7377 20.8577Z" fill="#181818"/>
<path d="M18.4428 24.5696C17.1841 24.5696 16.0428 24.2816 15.0188 23.7056C14.0161 23.1296 13.2268 22.3403 12.6508 21.3376C12.0748 20.3349 11.7868 19.1829 11.7868 17.8816V7.57759C11.7868 7.19359 11.6908 6.84159 11.4988 6.52159C11.3068 6.20159 11.0508 5.94559 10.7308 5.75359C10.4108 5.56159 10.0588 5.46559 9.6748 5.46559C9.2908 5.46559 8.9388 5.56159 8.6188 5.75359C8.32013 5.94559 8.0748 6.20159 7.8828 6.52159C7.6908 6.84159 7.5948 7.19359 7.5948 7.57759V24.2176H3.0188V8.12159C3.0188 6.88426 3.29613 5.76426 3.8508 4.76159C4.40547 3.75893 5.18413 2.95893 6.1868 2.36159C7.18947 1.74293 8.35213 1.43359 9.6748 1.43359C11.0188 1.43359 12.1921 1.74293 13.1948 2.36159C14.1975 2.95893 14.9761 3.75893 15.5308 4.76159C16.0855 5.76426 16.3628 6.88426 16.3628 8.12159V18.4256C16.3628 18.8096 16.4588 19.1616 16.6508 19.4816C16.8428 19.8016 17.0881 20.0576 17.3868 20.2496C17.7068 20.4416 18.0588 20.5376 18.4428 20.5376C18.8268 20.5376 19.1788 20.4416 19.4988 20.2496C19.8188 20.0576 20.0748 19.8016 20.2668 19.4816C20.4588 19.1616 20.5548 18.8096 20.5548 18.4256V8.12159C20.5548 6.88426 20.8321 5.76426 21.3868 4.76159C21.9415 3.75893 22.7201 2.95893 23.7228 2.36159C24.7468 1.74293 25.9201 1.43359 27.2428 1.43359C28.5868 1.43359 29.7495 1.74293 30.7308 2.36159C31.7335 2.95893 32.5121 3.75893 33.0668 4.76159C33.6215 5.76426 33.8988 6.88426 33.8988 8.12159V24.2176H29.3228V7.57759C29.3228 7.19359 29.2268 6.84159 29.0348 6.52159C28.8641 6.20159 28.6188 5.94559 28.2988 5.75359C27.9788 5.56159 27.6268 5.46559 27.2428 5.46559C26.8588 5.46559 26.5068 5.56159 26.1868 5.75359C25.8668 5.94559 25.6108 6.20159 25.4188 6.52159C25.2268 6.84159 25.1308 7.19359 25.1308 7.57759V17.8816C25.1308 19.1829 24.8321 20.3349 24.2348 21.3376C23.6588 22.3403 22.8695 23.1296 21.8668 23.7056C20.8641 24.2816 19.7228 24.5696 18.4428 24.5696Z" fill="#181818"/>
</svg>
