<svg width="131" height="25" viewBox="0 0 131 25" fill="none" xmlns="http://www.w3.org/2000/svg">
<path d="M123.004 24.2157C121.148 24.2157 119.527 23.8637 118.14 23.1597C116.775 22.4344 115.708 21.4531 114.94 20.2157C114.194 18.9784 113.82 17.5917 113.82 16.0557C113.82 14.3277 114.172 12.8237 114.876 11.5437C115.58 10.2637 116.54 9.27172 117.756 8.56772C118.972 7.86372 120.348 7.51172 121.884 7.51172C123.719 7.51172 125.202 7.89572 126.332 8.66372C127.484 9.43172 128.327 10.4664 128.86 11.7677C129.394 13.0477 129.66 14.4771 129.66 16.0557C129.66 16.2691 129.65 16.5251 129.628 16.8237C129.607 17.1011 129.575 17.3144 129.532 17.4637H118.492C118.663 18.1251 118.951 18.6797 119.356 19.1277C119.783 19.5757 120.306 19.9171 120.924 20.1517C121.564 20.3651 122.279 20.4717 123.068 20.4717H127.612V24.2157H123.004ZM118.46 14.5197H125.276C125.234 14.1144 125.159 13.7411 125.052 13.3997C124.946 13.0371 124.796 12.7171 124.604 12.4397C124.412 12.1624 124.188 11.9277 123.932 11.7357C123.676 11.5437 123.378 11.3944 123.036 11.2877C122.695 11.1811 122.322 11.1277 121.916 11.1277C121.383 11.1277 120.903 11.2237 120.476 11.4157C120.071 11.6077 119.73 11.8637 119.452 12.1837C119.175 12.5037 118.951 12.8664 118.78 13.2717C118.631 13.6771 118.524 14.0931 118.46 14.5197Z" fill="#181818"/>
<path d="M104.099 24.6024C103.139 24.6024 102.264 24.3464 101.475 23.8344C100.707 23.3224 100.174 22.6504 99.8751 21.8184L95.2031 7.89844H99.9711L103.747 20.0264C103.79 20.1118 103.843 20.1758 103.907 20.2184C103.971 20.2611 104.046 20.2824 104.131 20.2824C104.216 20.2824 104.291 20.2611 104.355 20.2184C104.44 20.1758 104.494 20.1118 104.515 20.0264L108.323 7.89844H112.995L108.323 21.7864C108.024 22.6184 107.48 23.3011 106.691 23.8344C105.923 24.3464 105.059 24.6024 104.099 24.6024Z" fill="#181818"/>
<path d="M84.2748 24.5997C82.7815 24.5997 81.4801 24.2157 80.3708 23.4477C79.2615 22.6797 78.3975 21.6557 77.7788 20.3757C77.1815 19.0744 76.8828 17.6451 76.8828 16.0877C76.8828 14.4877 77.2241 13.0371 77.9068 11.7357C78.6108 10.4344 79.6135 9.41038 80.9148 8.66372C82.2161 7.89572 83.7735 7.51172 85.5868 7.51172C87.4215 7.51172 88.9681 7.89572 90.2268 8.66372C91.4855 9.43172 92.4455 10.4664 93.1068 11.7677C93.7681 13.0691 94.0988 14.5091 94.0988 16.0877V24.2157H89.7148V21.4957H89.6508C89.3308 22.0717 88.9255 22.5944 88.4348 23.0637C87.9655 23.5331 87.3895 23.9064 86.7068 24.1837C86.0241 24.4611 85.2135 24.5997 84.2748 24.5997ZM85.5228 20.8557C86.3761 20.8557 87.1121 20.6424 87.7308 20.2157C88.3495 19.7891 88.8188 19.2131 89.1388 18.4877C89.4801 17.7411 89.6508 16.9197 89.6508 16.0237C89.6508 15.1277 89.4801 14.3277 89.1388 13.6237C88.8188 12.8984 88.3495 12.3224 87.7308 11.8957C87.1121 11.4691 86.3761 11.2557 85.5228 11.2557C84.6481 11.2557 83.8908 11.4691 83.2508 11.8957C82.6321 12.3224 82.1521 12.8984 81.8108 13.6237C81.4908 14.3277 81.3308 15.1277 81.3308 16.0237C81.3308 16.9197 81.4908 17.7411 81.8108 18.4877C82.1521 19.2131 82.6321 19.7891 83.2508 20.2157C83.8908 20.6424 84.6481 20.8557 85.5228 20.8557Z" fill="#181818"/>
<path d="M65.2408 24.6034C63.8541 24.6034 62.6275 24.39 61.5608 23.9634C60.4941 23.5154 59.5981 22.8967 58.8728 22.1074C58.1475 21.2967 57.5928 20.358 57.2088 19.2914C56.8248 18.2034 56.6328 17.0194 56.6328 15.7394C56.6328 14.118 56.9528 12.6994 57.5928 11.4834C58.2541 10.246 59.1715 9.27537 60.3448 8.57137C61.5181 7.86737 62.9048 7.51538 64.5048 7.51538C65.1875 7.51538 65.8381 7.61138 66.4568 7.80338C67.0968 7.99538 67.6621 8.27271 68.1528 8.63538C68.6648 8.99804 69.0915 9.42471 69.4328 9.91537H69.4648V0.859375H73.8488V15.7394C73.8488 17.5314 73.4968 19.0994 72.7928 20.4434C72.0888 21.766 71.0862 22.79 69.7848 23.5154C68.5048 24.2407 66.9901 24.6034 65.2408 24.6034ZM65.2408 20.8594C66.0941 20.8594 66.8302 20.646 67.4488 20.2194C68.0888 19.7927 68.5688 19.2167 68.8888 18.4914C69.2301 17.766 69.4008 16.9554 69.4008 16.0594C69.4008 15.1634 69.2301 14.3527 68.8888 13.6274C68.5688 12.902 68.0888 12.326 67.4488 11.8994C66.8302 11.4727 66.0941 11.2594 65.2408 11.2594C64.3661 11.2594 63.6195 11.4727 63.0008 11.8994C62.3821 12.326 61.9021 12.902 61.5608 13.6274C61.2408 14.3527 61.0808 15.1634 61.0808 16.0594C61.0808 16.9554 61.2408 17.766 61.5608 18.4914C61.9021 19.2167 62.3821 19.7927 63.0008 20.2194C63.6195 20.646 64.3661 20.8594 65.2408 20.8594Z" fill="#181818"/>
<path d="M45.5891 24.5997C43.9037 24.5997 42.3997 24.2264 41.0771 23.4797C39.7544 22.7117 38.7091 21.6877 37.9411 20.4077C37.1731 19.1064 36.7891 17.6557 36.7891 16.0557C36.7891 14.4557 37.1731 13.0157 37.9411 11.7357C38.7091 10.4344 39.7544 9.41038 41.0771 8.66372C42.3997 7.89572 43.9037 7.51172 45.5891 7.51172C47.2744 7.51172 48.7784 7.89572 50.1011 8.66372C51.4237 9.41038 52.4691 10.4344 53.2371 11.7357C54.0051 13.0157 54.3891 14.4557 54.3891 16.0557C54.3891 17.6557 54.0051 19.1064 53.2371 20.4077C52.4691 21.6877 51.4237 22.7117 50.1011 23.4797C48.7784 24.2264 47.2744 24.5997 45.5891 24.5997ZM45.5891 20.8557C46.4851 20.8557 47.2531 20.6424 47.8931 20.2157C48.5544 19.7891 49.0557 19.2131 49.3971 18.4877C49.7597 17.7624 49.9411 16.9517 49.9411 16.0557C49.9411 15.1597 49.7597 14.3491 49.3971 13.6237C49.0557 12.8984 48.5544 12.3224 47.8931 11.8957C47.2531 11.4691 46.4851 11.2557 45.5891 11.2557C44.6931 11.2557 43.9144 11.4691 43.2531 11.8957C42.6131 12.3224 42.1117 12.8984 41.7491 13.6237C41.4077 14.3491 41.2371 15.1597 41.2371 16.0557C41.2371 16.9517 41.4077 17.7624 41.7491 18.4877C42.1117 19.2131 42.6131 19.7891 43.2531 20.2157C43.9144 20.6424 44.6931 20.8557 45.5891 20.8557Z" fill="#181818"/>
<path d="M18.299 24.5696C17.0403 24.5696 15.899 24.2816 14.875 23.7056C13.8723 23.1296 13.083 22.3403 12.507 21.3376C11.931 20.3349 11.643 19.1829 11.643 17.8816V7.57759C11.643 7.19359 11.547 6.84159 11.355 6.52159C11.163 6.20159 10.907 5.94559 10.587 5.75359C10.267 5.56159 9.915 5.46559 9.531 5.46559C9.147 5.46559 8.795 5.56159 8.475 5.75359C8.17633 5.94559 7.931 6.20159 7.739 6.52159C7.547 6.84159 7.451 7.19359 7.451 7.57759V24.2176H2.875V8.12159C2.875 6.88426 3.15233 5.76426 3.707 4.76159C4.26167 3.75893 5.04033 2.95893 6.043 2.36159C7.04567 1.74293 8.20833 1.43359 9.531 1.43359C10.875 1.43359 12.0483 1.74293 13.051 2.36159C14.0537 2.95893 14.8323 3.75893 15.387 4.76159C15.9417 5.76426 16.219 6.88426 16.219 8.12159V18.4256C16.219 18.8096 16.315 19.1616 16.507 19.4816C16.699 19.8016 16.9443 20.0576 17.243 20.2496C17.563 20.4416 17.915 20.5376 18.299 20.5376C18.683 20.5376 19.035 20.4416 19.355 20.2496C19.675 20.0576 19.931 19.8016 20.123 19.4816C20.315 19.1616 20.411 18.8096 20.411 18.4256V8.12159C20.411 6.88426 20.6883 5.76426 21.243 4.76159C21.7977 3.75893 22.5763 2.95893 23.579 2.36159C24.603 1.74293 25.7763 1.43359 27.099 1.43359C28.443 1.43359 29.6057 1.74293 30.587 2.36159C31.5897 2.95893 32.3683 3.75893 32.923 4.76159C33.4777 5.76426 33.755 6.88426 33.755 8.12159V24.2176H29.179V7.57759C29.179 7.19359 29.083 6.84159 28.891 6.52159C28.7203 6.20159 28.475 5.94559 28.155 5.75359C27.835 5.56159 27.483 5.46559 27.099 5.46559C26.715 5.46559 26.363 5.56159 26.043 5.75359C25.723 5.94559 25.467 6.20159 25.275 6.52159C25.083 6.84159 24.987 7.19359 24.987 7.57759V17.8816C24.987 19.1829 24.6883 20.3349 24.091 21.3376C23.515 22.3403 22.7257 23.1296 21.723 23.7056C20.7203 24.2816 19.579 24.5696 18.299 24.5696Z" fill="#181818"/>
</svg>
